<svg xmlns="http://www.w3.org/2000/svg" width="52" height="36" viewBox="0 0 52 36"><g transform="translate(-327 -285)"><g transform="translate(348.608 286.629)"><rect width="52" height="36" rx="2" transform="translate(-21.608 -1.629)" fill="#090909"/><text transform="translate(3.392 2.371)" fill="#fefefe" font-size="11" font-family="SegoeUI-Bold, Segoe UI" font-weight="700" letter-spacing="-0.044em"><tspan x="0" y="12">18</tspan></text><text transform="translate(-10.608 17.371)" fill="#fefefe" font-size="11" font-family="SegoeUI-Bold, Segoe UI" font-weight="700" letter-spacing="-0.044em"><tspan x="0" y="12">4</tspan></text><g transform="translate(2 -6)"><path d="M2.291,6.355l1.018,1.4L14.387,0l1.591,2.272L4.94,10l.967,1.331L0,11.821Z" transform="matrix(0.819, 0.574, -0.574, 0.819, -12.659, 7.045)" fill="#fff"/><path d="M2.147,6.355l.955,1.4L13.487,0l1.491,2.272L4.63,10l.906,1.331L0,11.821Z" transform="matrix(-0.588, 0.809, -0.809, -0.588, -0.028, 13.479)" fill="#fff"/></g></g></g></svg>