<svg xmlns="http://www.w3.org/2000/svg" xmlns:xlink="http://www.w3.org/1999/xlink" width="699.715" height="90.5">
  <defs>
    <clipPath id="n">
      <use xlink:href="#a"/>
    </clipPath>
    <clipPath id="o">
      <use xlink:href="#b"/>
    </clipPath>
    <clipPath id="p">
      <use xlink:href="#c"/>
    </clipPath>
    <clipPath id="q">
      <use xlink:href="#d"/>
    </clipPath>
    <clipPath id="r">
      <use xlink:href="#e"/>
    </clipPath>
    <clipPath id="s">
      <use xlink:href="#f"/>
    </clipPath>
    <clipPath id="t">
      <use xlink:href="#g"/>
    </clipPath>
    <clipPath id="u">
      <use xlink:href="#h"/>
    </clipPath>
    <clipPath id="v">
      <use xlink:href="#i"/>
    </clipPath>
    <clipPath id="w">
      <use xlink:href="#j"/>
    </clipPath>
    <clipPath id="x">
      <use xlink:href="#k"/>
    </clipPath>
    <clipPath id="y">
      <use xlink:href="#l"/>
    </clipPath>
    <filter id="z" width="85" height="66" x="55.5" y="24.5" filterUnits="userSpaceOnUse">
      <feOffset dy="11"/>
      <feGaussianBlur result="d" stdDeviation="7.5"/>
      <feFlood/>
      <feComposite in2="d" operator="in"/>
      <feComposite in="SourceGraphic"/>
    </filter>
    <filter id="B" width="85" height="66" x="109.5" y="24.5" filterUnits="userSpaceOnUse">
      <feOffset dy="11"/>
      <feGaussianBlur result="g" stdDeviation="7.5"/>
      <feFlood/>
      <feComposite in2="g" operator="in"/>
      <feComposite in="SourceGraphic"/>
    </filter>
    <filter id="C" width="85" height="66" x="164.5" y="24.5" filterUnits="userSpaceOnUse">
      <feOffset dy="11"/>
      <feGaussianBlur result="j" stdDeviation="7.5"/>
      <feFlood/>
      <feComposite in2="j" operator="in"/>
      <feComposite in="SourceGraphic"/>
    </filter>
    <filter id="D" width="85" height="66" x="219.5" y="24.5" filterUnits="userSpaceOnUse">
      <feOffset dy="11"/>
      <feGaussianBlur result="m" stdDeviation="7.5"/>
      <feFlood/>
      <feComposite in2="m" operator="in"/>
      <feComposite in="SourceGraphic"/>
    </filter>
    <filter id="E" width="85" height="66" x="274.5" y="24.5" filterUnits="userSpaceOnUse">
      <feOffset dy="11"/>
      <feGaussianBlur result="p" stdDeviation="7.5"/>
      <feFlood/>
      <feComposite in2="p" operator="in"/>
      <feComposite in="SourceGraphic"/>
    </filter>
    <filter id="F" width="85" height="66" x="328.5" y="24.5" filterUnits="userSpaceOnUse">
      <feOffset dy="11"/>
      <feGaussianBlur result="s" stdDeviation="7.5"/>
      <feFlood/>
      <feComposite in2="s" operator="in"/>
      <feComposite in="SourceGraphic"/>
    </filter>
    <filter id="G" width="85" height="66" x="384.5" y="24.5" filterUnits="userSpaceOnUse">
      <feOffset dy="11"/>
      <feGaussianBlur result="v" stdDeviation="7.5"/>
      <feFlood/>
      <feComposite in2="v" operator="in"/>
      <feComposite in="SourceGraphic"/>
    </filter>
    <filter id="H" width="85" height="66" x="439.5" y="24.5" filterUnits="userSpaceOnUse">
      <feOffset dy="11"/>
      <feGaussianBlur result="y" stdDeviation="7.5"/>
      <feFlood/>
      <feComposite in2="y" operator="in"/>
      <feComposite in="SourceGraphic"/>
    </filter>
    <filter id="I" width="85" height="66" x="494.5" y="24.5" filterUnits="userSpaceOnUse">
      <feOffset dy="11"/>
      <feGaussianBlur result="ab" stdDeviation="7.5"/>
      <feFlood/>
      <feComposite in2="ab" operator="in"/>
      <feComposite in="SourceGraphic"/>
    </filter>
    <filter id="J" width="85" height="66" x="549.5" y="24.5" filterUnits="userSpaceOnUse">
      <feOffset dy="11"/>
      <feGaussianBlur result="ae" stdDeviation="7.5"/>
      <feFlood/>
      <feComposite in2="ae" operator="in"/>
      <feComposite in="SourceGraphic"/>
    </filter>
    <filter id="K" width="83" height="61" x="0" y="27" filterUnits="userSpaceOnUse">
      <feOffset dy="11"/>
      <feGaussianBlur result="ah" stdDeviation="7"/>
      <feFlood/>
      <feComposite in2="ah" operator="in"/>
      <feComposite in="SourceGraphic"/>
    </filter>
    <filter id="L" width="83" height="61" x="605" y="27" filterUnits="userSpaceOnUse">
      <feOffset dy="11"/>
      <feGaussianBlur result="ak" stdDeviation="7"/>
      <feFlood/>
      <feComposite in2="ak" operator="in"/>
      <feComposite in="SourceGraphic"/>
    </filter>
    <linearGradient id="m" x1=".5" x2=".5" y1=".112" y2=".221" gradientUnits="objectBoundingBox">
      <stop offset="0" stop-color="#35393a"/>
      <stop offset=".528" stop-color="#999a9b"/>
      <stop offset="1" stop-color="#383c3f"/>
    </linearGradient>
    <linearGradient id="A" x1=".5" x2=".5" y2="1" gradientUnits="objectBoundingBox">
      <stop offset="0" stop-color="#5a5e61"/>
      <stop offset="1" stop-color="#3f4346"/>
    </linearGradient>
    <radialGradient id="M" cx=".5" cy=".05" r="1.078" gradientTransform="matrix(1 0 0 .133 0 .044)" gradientUnits="objectBoundingBox">
      <stop offset="0" stop-color="#e1eff9"/>
      <stop offset="0" stop-color="#bbe2f2"/>
      <stop offset="1" stop-color="#667884"/>
    </radialGradient>
  </defs>
  <path fill="url(#m)" d="M-2828.2 6301.21a11.476 11.476 0 00-4.99 2.333c-1.873 2.057-2.308 3.437-2.245 5.527.151 4.987 0 56.681 0 56.681l699.019-.451v-54.868a10.107 10.107 0 00-2.3-6.965c-2.783-3.722-5.085-3.464-5.085-3.464z" transform="translate(2836.104 -6282.457)"/>
  <g stroke="#35393a" stroke-width="3">
    <g fill="none" transform="translate(41 24)">
      <path id="a" stroke="none" d="M0 0h2v17H0z"/>
      <path d="M0 1.5h2M1.5 0v17m.5-1.5H0M.5 17V0" clip-path="url(#n)"/>
    </g>
    <g fill="#fff" transform="translate(97 24)">
      <path id="b" stroke="none" d="M0 0h2v17H0z"/>
      <path fill="none" d="M0 1.5h2M1.5 0v17m.5-1.5H0M.5 17V0" clip-path="url(#o)"/>
    </g>
    <g fill="#fff" transform="translate(151 24)">
      <path id="c" stroke="none" d="M0 0h2v17H0z"/>
      <path fill="none" d="M0 1.5h2M1.5 0v17m.5-1.5H0M.5 17V0" clip-path="url(#p)"/>
    </g>
    <g fill="#fff" transform="translate(206 24)">
      <path id="d" stroke="none" d="M0 0h2v17H0z"/>
      <path fill="none" d="M0 1.5h2M1.5 0v17m.5-1.5H0M.5 17V0" clip-path="url(#q)"/>
    </g>
    <g fill="#fff" transform="translate(261 24)">
      <path id="e" stroke="none" d="M0 0h2v17H0z"/>
      <path fill="none" d="M0 1.5h2M1.5 0v17m.5-1.5H0M.5 17V0" clip-path="url(#r)"/>
    </g>
    <g fill="#fff" transform="translate(316 24)">
      <path id="f" stroke="none" d="M0 0h2v17H0z"/>
      <path fill="none" d="M0 1.5h2M1.5 0v17m.5-1.5H0M.5 17V0" clip-path="url(#s)"/>
    </g>
    <g fill="#fff" transform="translate(371 24)">
      <path id="g" stroke="none" d="M0 0h2v17H0z"/>
      <path fill="none" d="M0 1.5h2M1.5 0v17m.5-1.5H0M.5 17V0" clip-path="url(#t)"/>
    </g>
    <g fill="#fff" transform="translate(427 24)">
      <path id="h" stroke="none" d="M0 0h2v17H0z"/>
      <path fill="none" d="M0 1.5h2M1.5 0v17m.5-1.5H0M.5 17V0" clip-path="url(#u)"/>
    </g>
    <g fill="#fff" transform="translate(481 24)">
      <path id="i" stroke="none" d="M0 0h2v17H0z"/>
      <path fill="none" d="M0 1.5h2M1.5 0v17m.5-1.5H0M.5 17V0" clip-path="url(#v)"/>
    </g>
    <g fill="#fff" transform="translate(534 24)">
      <path id="j" stroke="none" d="M0 0h2v17H0z"/>
      <path fill="none" d="M0 1.5h2M1.5 0v17m.5-1.5H0M.5 17V0" clip-path="url(#w)"/>
    </g>
    <g fill="#fff" transform="translate(590 24)">
      <path id="k" stroke="none" d="M0 0h2v17H0z"/>
      <path fill="none" d="M0 1.5h2M1.5 0v17m.5-1.5H0M.5 17V0" clip-path="url(#x)"/>
    </g>
    <g fill="#fff" transform="translate(645 24)">
      <path id="l" stroke="none" d="M0 0h2v17H0z"/>
      <path fill="none" d="M0 1.5h2M1.5 0v17m.5-1.5H0M.5 17V0" clip-path="url(#y)"/>
    </g>
  </g>
  <g filter="url(#z)">
    <g fill="url(#A)" stroke="#393636" transform="translate(79 37)">
      <path stroke="none" d="M0 0h38v19H0z"/>
      <path fill="none" d="M-.5-.5h39v20h-39z"/>
    </g>
  </g>
  <path fill="#fff" d="M98.5 43l5.5 7H93z"/>
  <g filter="url(#B)">
    <g fill="url(#A)" stroke="#393636" transform="translate(133 37)">
      <path stroke="none" d="M0 0h38v19H0z"/>
      <path fill="none" d="M-.5-.5h39v20h-39z"/>
    </g>
  </g>
  <path fill="#fff" d="M152.5 43l5.5 7h-11z"/>
  <g filter="url(#C)">
    <g fill="url(#A)" stroke="#393636" transform="translate(188 37)">
      <path stroke="none" d="M0 0h38v19H0z"/>
      <path fill="none" d="M-.5-.5h39v20h-39z"/>
    </g>
  </g>
  <path fill="#fff" d="M207.5 43l5.5 7h-11z"/>
  <g filter="url(#D)">
    <g fill="url(#A)" stroke="#393636" transform="translate(243 37)">
      <path stroke="none" d="M0 0h38v19H0z"/>
      <path fill="none" d="M-.5-.5h39v20h-39z"/>
    </g>
  </g>
  <path fill="#fff" d="M262.5 43l5.5 7h-11z"/>
  <g filter="url(#E)">
    <g fill="url(#A)" stroke="#393636" transform="translate(298 37)">
      <path stroke="none" d="M0 0h38v19H0z"/>
      <path fill="none" d="M-.5-.5h39v20h-39z"/>
    </g>
  </g>
  <path fill="#fff" d="M317.5 43l5.5 7h-11z"/>
  <g filter="url(#F)">
    <g fill="url(#A)" stroke="#393636" transform="translate(352 37)">
      <path stroke="none" d="M0 0h38v19H0z"/>
      <path fill="none" d="M-.5-.5h39v20h-39z"/>
    </g>
  </g>
  <path fill="#fff" d="M371.5 43l5.5 7h-11z"/>
  <g>
    <g filter="url(#G)">
      <g fill="url(#A)" stroke="#393636" transform="translate(408 37)">
        <path stroke="none" d="M0 0h38v19H0z"/>
        <path fill="none" d="M-.5-.5h39v20h-39z"/>
      </g>
    </g>
    <path fill="#fff" d="M427.5 43l5.5 7h-11z"/>
  </g>
  <g>
    <g filter="url(#H)">
      <g fill="url(#A)" stroke="#393636" transform="translate(463 37)">
        <path stroke="none" d="M0 0h38v19H0z"/>
        <path fill="none" d="M-.5-.5h39v20h-39z"/>
      </g>
    </g>
    <path fill="#fff" d="M482.5 43l5.5 7h-11z"/>
  </g>
  <g>
    <g filter="url(#I)">
      <g fill="url(#A)" stroke="#393636" transform="translate(518 37)">
        <path stroke="none" d="M0 0h38v19H0z"/>
        <path fill="none" d="M-.5-.5h39v20h-39z"/>
      </g>
    </g>
    <path fill="#fff" d="M537.5 43l5.5 7h-11z"/>
  </g>
  <g>
    <g filter="url(#J)">
      <g fill="url(#A)" stroke="#393636" transform="translate(573 37)">
        <path stroke="none" d="M0 0h38v19H0z"/>
        <path fill="none" d="M-.5-.5h39v20h-39z"/>
      </g>
    </g>
    <path fill="#fff" d="M592.5 43l5.5 7h-11z"/>
  </g>
  <g>
    <g filter="url(#K)">
      <path fill="url(#A)" d="M9.5 0H41v19H9.5A9.5 9.5 0 010 9.5 9.5 9.5 0 019.5 0z" transform="translate(21 37)"/>
    </g>
    <path fill="#fff" d="M41.5 42l5.5 7H36z"/>
    <path fill="#fff" d="M41.5 42l5.5 7H36z"/>
  </g>
  <g>
    <g filter="url(#L)">
      <path fill="url(#A)" d="M0 0h31.5A9.5 9.5 0 0141 9.5a9.5 9.5 0 01-9.5 9.5H0V0z" transform="translate(626 37)"/>
    </g>
    <path fill="#fff" d="M646.5 43l5.5 7h-11z"/>
  </g>
  <g>
    <g fill="url(#M)" stroke="#707070" transform="translate(14.999)">
      <path stroke="none" d="M10 0h35a10 10 0 0110 10v10H0V10A10 10 0 0110 0z"/>
      <path fill="none" d="M10 .5h35a9.5 9.5 0 019.5 9.5v9a.5.5 0 01-.5.5H1a.5.5 0 01-.5-.5v-9A9.5 9.5 0 0110 .5z"/>
    </g>
    <g fill="url(#M)" stroke="#707070" transform="translate(69.999)">
      <path stroke="none" d="M10 0h36a10 10 0 0110 10v10H0V10A10 10 0 0110 0z"/>
      <path fill="none" d="M10 .5h36a9.5 9.5 0 019.5 9.5v9a.5.5 0 01-.5.5H1a.5.5 0 01-.5-.5v-9A9.5 9.5 0 0110 .5z"/>
    </g>
    <g fill="url(#M)" stroke="#707070" transform="translate(124.999)">
      <path stroke="none" d="M10 0h35a10 10 0 0110 10v10H0V10A10 10 0 0110 0z"/>
      <path fill="none" d="M10 .5h35a9.5 9.5 0 019.5 9.5v9a.5.5 0 01-.5.5H1a.5.5 0 01-.5-.5v-9A9.5 9.5 0 0110 .5z"/>
    </g>
    <g fill="url(#M)" stroke="#707070" transform="translate(179.999)">
      <path stroke="none" d="M10 0h35a10 10 0 0110 10v10H0V10A10 10 0 0110 0z"/>
      <path fill="none" d="M10 .5h35a9.5 9.5 0 019.5 9.5v9a.5.5 0 01-.5.5H1a.5.5 0 01-.5-.5v-9A9.5 9.5 0 0110 .5z"/>
    </g>
    <g fill="url(#M)" stroke="#707070" transform="translate(234.999)">
      <path stroke="none" d="M10 0h36a10 10 0 0110 10v10H0V10A10 10 0 0110 0z"/>
      <path fill="none" d="M10 .5h36a9.5 9.5 0 019.5 9.5v9a.5.5 0 01-.5.5H1a.5.5 0 01-.5-.5v-9A9.5 9.5 0 0110 .5z"/>
    </g>
    <g fill="url(#M)" stroke="#707070" transform="translate(290.999)">
      <path stroke="none" d="M10 0h34a10 10 0 0110 10v10H0V10A10 10 0 0110 0z"/>
      <path fill="none" d="M10 .5h34a9.5 9.5 0 019.5 9.5v9a.5.5 0 01-.5.5H1a.5.5 0 01-.5-.5v-9A9.5 9.5 0 0110 .5z"/>
    </g>
    <g fill="url(#M)" stroke="#707070" transform="translate(344.999)">
      <path stroke="none" d="M10 0h35a10 10 0 0110 10v10H0V10A10 10 0 0110 0z"/>
      <path fill="none" d="M10 .5h35a9.5 9.5 0 019.5 9.5v9a.5.5 0 01-.5.5H1a.5.5 0 01-.5-.5v-9A9.5 9.5 0 0110 .5z"/>
    </g>
    <g fill="url(#M)" stroke="#707070" transform="translate(399.999)">
      <path stroke="none" d="M10 0h34a10 10 0 0110 10v10H0V10A10 10 0 0110 0z"/>
      <path fill="none" d="M10 .5h34a9.5 9.5 0 019.5 9.5v9a.5.5 0 01-.5.5H1a.5.5 0 01-.5-.5v-9A9.5 9.5 0 0110 .5z"/>
    </g>
    <g fill="url(#M)" stroke="#707070" transform="translate(453.999)">
      <path stroke="none" d="M10 0h36a10 10 0 0110 10v10H0V10A10 10 0 0110 0z"/>
      <path fill="none" d="M10 .5h36a9.5 9.5 0 019.5 9.5v9a.5.5 0 01-.5.5H1a.5.5 0 01-.5-.5v-9A9.5 9.5 0 0110 .5z"/>
    </g>
    <g fill="url(#M)" stroke="#707070" transform="translate(509.999)">
      <path stroke="none" d="M10 0h35a10 10 0 0110 10v10H0V10A10 10 0 0110 0z"/>
      <path fill="none" d="M10 .5h35a9.5 9.5 0 019.5 9.5v9a.5.5 0 01-.5.5H1a.5.5 0 01-.5-.5v-9A9.5 9.5 0 0110 .5z"/>
    </g>
    <g fill="url(#M)" stroke="#707070" transform="translate(563.999)">
      <path stroke="none" d="M10 0h35a10 10 0 0110 10v10H0V10A10 10 0 0110 0z"/>
      <path fill="none" d="M10 .5h35a9.5 9.5 0 019.5 9.5v9a.5.5 0 01-.5.5H1a.5.5 0 01-.5-.5v-9A9.5 9.5 0 0110 .5z"/>
    </g>
    <g fill="url(#M)" stroke="#707070" transform="translate(618.999)">
      <path stroke="none" d="M10 0h36a10 10 0 0110 10v10H0V10A10 10 0 0110 0z"/>
      <path fill="none" d="M10 .5h36a9.5 9.5 0 019.5 9.5v9a.5.5 0 01-.5.5H1a.5.5 0 01-.5-.5v-9A9.5 9.5 0 0110 .5z"/>
    </g>
    <path fill="#151515" d="M24.999 1h35a10 10 0 0110 10v8h-55v-8a10 10 0 0110-10zM79.999 1h35a10 10 0 0110 10v8h-55v-8a10 10 0 0110-10zM134.999 1h35a10 10 0 0110 10v8h-55v-8a10 10 0 0110-10zM189.999 1h35a10 10 0 0110 10v8h-55v-8a10 10 0 0110-10zM244.999 1h36a10 10 0 0110 10v8h-56v-8a10 10 0 0110-10zM300.999 1h34a10 10 0 0110 10v8h-54v-8a10 10 0 0110-10zM354.999 1h35a10 10 0 0110 10v8h-55v-8a10 10 0 0110-10zM409.999 1h34a10 10 0 0110 10v8h-54v-8a10 10 0 0110-10zM463.999 1h36a10 10 0 0110 10v8h-56v-8a10 10 0 0110-10zM519.999 1h34a10 10 0 0110 10v8h-54v-8a10 10 0 0110-10zM573.999 1h35a10 10 0 0110 10v8h-55v-8a10 10 0 0110-10zM628.999 1h36a10 10 0 0110 10v8h-56v-8a10 10 0 0110-10z"/>
  </g>
</svg>
