<svg xmlns="http://www.w3.org/2000/svg" width="164" height="156" viewBox="0 0 164 156"><g transform="translate(0.723 0.292)"><g transform="translate(-0.223 0.208)" fill="#0d0d0d" stroke="#cacaf0" stroke-width="0.5"><rect width="163" height="155" stroke="none"/><rect x="-0.25" y="-0.25" width="163.5" height="155.5" fill="none"/></g><g transform="translate(13.777 11.208)" fill="none" stroke="#fffdfd" stroke-width="1" stroke-dasharray="3"><ellipse cx="67.5" cy="67" rx="67.5" ry="67" stroke="none"/><ellipse cx="67.5" cy="67" rx="67" ry="66.5" fill="none"/></g><g transform="translate(56.777 54.208)" fill="none" stroke="#fffdfd" stroke-width="1" stroke-dasharray="3"><circle cx="24" cy="24" r="24" stroke="none"/><circle cx="24" cy="24" r="23.5" fill="none"/></g><g transform="translate(11.199 9.163)"><g transform="translate(0 0)"><rect width="4" height="4" transform="translate(72.578 134.045) rotate(90)" fill="#fff"/><rect width="4" height="4" transform="translate(72.578 0.045) rotate(90)" fill="#fff"/><rect width="5" height="4" transform="translate(72.578 43.045) rotate(90)" fill="#fff"/><rect width="4" height="4" transform="translate(72.578 91.045) rotate(90)" fill="#fff"/><rect width="4" height="4" transform="translate(135.578 67.045)" fill="#fff"/><rect width="6" height="4" transform="translate(-0.422 67.045)" fill="#fff"/><rect width="4" height="4" transform="translate(43.578 67.045)" fill="#fff"/><rect width="4" height="4" transform="translate(91.578 67.045)" fill="#fff"/></g></g><g transform="translate(20.643 115.385) rotate(-77)"><rect width="3.222" height="3.222" transform="translate(95.683 97.412) rotate(47)" fill="#fff"/><rect width="3.222" height="3.222" transform="translate(4.845 0) rotate(47)" fill="#fff"/><rect width="3.222" height="3.222" transform="matrix(-0.719, 0.695, -0.695, -0.719, 4.557, 97.286)" fill="#fff"/><rect width="3.222" height="3.222" transform="matrix(-0.719, 0.695, -0.695, -0.719, 100.369, 4.761)" fill="#fff"/></g><g transform="matrix(0.966, -0.259, 0.259, 0.966, 19.939, 41.698)"><rect width="3.222" height="3.222" transform="translate(95.683 97.412) rotate(47)" fill="#fff"/><rect width="3.222" height="3.222" transform="translate(4.845 0) rotate(47)" fill="#fff"/><rect width="3.222" height="3.222" transform="matrix(-0.719, 0.695, -0.695, -0.719, 4.557, 97.286)" fill="#fff"/><rect width="3.222" height="3.222" transform="matrix(-0.719, 0.695, -0.695, -0.719, 100.369, 4.761)" fill="#fff"/></g><g transform="translate(53.959 87.556)"><g transform="translate(-0.183 0.652)" stroke="#fff" stroke-width="1"><rect width="28" height="15" rx="5" stroke="none"/><rect x="0.5" y="0.5" width="27" height="14" rx="4.5" fill="none"/></g><text transform="translate(3.817 9.652)" fill="#53eeee" font-size="9" font-family="SegoeUI-Bold, Segoe UI" font-weight="700" letter-spacing="-0.02em"><tspan x="0" y="0">2</tspan><tspan y="0" font-size="7">NM</tspan></text></g><g transform="translate(0 0)"><g transform="translate(-0.223 0.208)" stroke="#fff" stroke-width="0.7"><rect width="44" height="14" rx="4" stroke="none"/><rect x="0.35" y="0.35" width="43.3" height="13.3" rx="3.65" fill="none"/></g><text transform="translate(3.777 10.208)" fill="#53eeee" font-size="9" font-family="SegoeUI-Bold, Segoe UI" font-weight="700" letter-spacing="-0.02em"><tspan x="0" y="0">HDG UP</tspan></text></g><g transform="translate(88.575 140.498)"><g transform="translate(0.202 0.711)" stroke="#fff" stroke-width="0.7"><rect width="74" height="14" rx="4" stroke="none"/><rect x="0.35" y="0.35" width="73.3" height="13.3" rx="3.65" fill="none"/></g><text transform="translate(8.202 9.711)" fill="#fefefe" font-size="9" font-family="SegoeUI-Bold, Segoe UI" font-weight="700" letter-spacing="-0.02em"><tspan x="0" y="0">Motion:</tspan><tspan y="0" xml:space="preserve" fill="#53eeee"> ABS</tspan></text></g><g transform="translate(21.38 114.027)"><g transform="translate(0.397 1.181)" stroke="#fff" stroke-width="1"><rect width="27" height="14" rx="5" stroke="none"/><rect x="0.5" y="0.5" width="26" height="13" rx="4.5" fill="none"/></g><text transform="translate(4.397 10.181)" fill="#53eeee" font-size="9" font-family="SegoeUI-Bold, Segoe UI" font-weight="700" letter-spacing="-0.02em"><tspan x="0" y="0">6</tspan><tspan y="0" font-size="7">NM</tspan></text></g><rect width="4" height="155" transform="translate(79.777 0.208)" fill="#d650cd"/><g transform="translate(70.727 78.219)"><ellipse cx="2.331" cy="11.342" rx="2.331" ry="11.342" transform="translate(8.279 0)" fill="#fff"/><path d="M1.266,0,9.679.189a.217.217,0,0,1,.221.2l.087,3.453a.193.193,0,0,1-.211.187L.5,3.817a.434.434,0,0,1-.441-.393L0,1.122A1.161,1.161,0,0,1,1.266,0Z" transform="translate(0 6.762) rotate(-11)" fill="#fff"/><path d="M.513.252,9.761,0a.192.192,0,0,1,.209.189L9.865,3.695a.22.22,0,0,1-.221.2l-8.388.229A1.152,1.152,0,0,1,0,2.991L.071.653A.441.441,0,0,1,.513.252Z" transform="matrix(-0.966, -0.259, 0.259, -0.966, 19.857, 11.285)" fill="#fff"/><path d="M1.955,0H5.669A.326.326,0,0,1,6,.326V2.281a.326.326,0,0,1-.326.326H.652A.652.652,0,0,1,0,1.955v0A1.955,1.955,0,0,1,1.955,0Z" transform="translate(3.256 18.956) rotate(-11)" fill="#fff"/><path d="M.652,0H5.669A.326.326,0,0,1,6,.326V2.281a.326.326,0,0,1-.326.326H1.955A1.955,1.955,0,0,1,0,.652v0A.652.652,0,0,1,.652,0Z" transform="matrix(-0.966, -0.259, 0.259, -0.966, 16.653, 21.828)" fill="#fff"/></g><g transform="translate(22.034 41.212) rotate(-172)"><path d="M7.2,0,0,22.849l7.2-5.273,7.2,5.273Z" transform="matrix(0.999, -0.035, 0.035, 0.999, 0, 0.502)" fill="#fff"/><text transform="translate(5.028 13.729)" fill="#060606" font-size="6" font-family="SegoeUI-Bold, Segoe UI" font-weight="700" letter-spacing="-0.044em"><tspan x="0" y="0">N</tspan></text></g></g></svg>