<svg xmlns="http://www.w3.org/2000/svg" xmlns:xlink="http://www.w3.org/1999/xlink" width="98" height="34" viewBox="0 0 98 34"><defs><radialGradient id="a" cx="0.5" cy="0.05" r="1.078" gradientTransform="translate(0 0.044) scale(1 0.133)" gradientUnits="objectBoundingBox"><stop offset="0" stop-color="#e1eff9"/><stop offset="0" stop-color="#bbe2f2"/><stop offset="1" stop-color="#667884"/></radialGradient></defs><g transform="translate(-0.345 -0.416)"><g transform="translate(0.345 0.416)" stroke="#707070" stroke-width="1" fill="url(#a)"><path d="M10,0H88A10,10,0,0,1,98,10V34a0,0,0,0,1,0,0H0a0,0,0,0,1,0,0V10A10,10,0,0,1,10,0Z" stroke="none"/><path d="M10,.5H88A9.5,9.5,0,0,1,97.5,10V33a.5.5,0,0,1-.5.5H1A.5.5,0,0,1,.5,33V10A9.5,9.5,0,0,1,10,.5Z" fill="none"/></g><path d="M10,0H88A10,10,0,0,1,98,10V31a0,0,0,0,1,0,0H0a0,0,0,0,1,0,0V10A10,10,0,0,1,10,0Z" transform="translate(0.345 2.416)" fill="#151515"/></g></svg>